<svg width="10" height="10" viewBox="0 0 10 10" fill="none" xmlns="http://www.w3.org/2000/svg">
<g clip-path="url(#clip0_9220_83116)">
<path d="M6.94684 2.8764C6.85124 2.79996 6.76326 2.70988 6.63231 2.72416C6.52942 2.73544 6.42519 2.82381 6.333 2.87218C5.49246 3.31355 4.41245 3.27322 3.58214 2.8316C3.44231 2.75727 3.34981 2.66655 3.18351 2.77212C2.92668 2.93515 2.58766 3.28929 2.39346 3.52949C1.61419 4.49387 1.08889 6.19962 1.60714 7.39349C2.22066 8.80663 3.96579 9.03928 5.30666 8.99505C6.7738 8.94669 8.36468 8.40396 8.57497 6.70113C8.74706 5.30747 8.00933 3.7266 6.94684 2.8764ZM6.53315 6.73691C6.38476 7.1571 5.70687 7.07888 5.36365 7.08959C5.24388 7.12059 5.31411 7.257 5.20956 7.297C5.06838 7.28735 4.89669 7.31583 4.75924 7.29887C4.64486 7.28483 4.69757 7.16116 4.63266 7.11198C4.61062 7.09535 4.58858 7.08983 4.56155 7.0874C4.41832 7.07441 4.25582 7.09567 4.1095 7.08764C3.81035 7.07125 3.41924 6.98142 3.39214 6.61292C3.37731 6.41061 3.37684 6.16286 3.62003 6.12415H4.66222C4.74949 6.14128 4.80435 6.20084 4.81663 6.29067C4.82432 6.34683 4.81069 6.38578 4.84715 6.43796C4.90549 6.5217 5.09161 6.5118 5.14036 6.41467C5.1639 6.36785 5.16644 6.26097 5.1578 6.2092C5.13853 6.0934 4.96526 6.06029 4.87252 6.03059C4.50504 5.913 4.04759 5.82682 3.70381 5.66899C3.38025 5.52048 3.36891 5.3151 3.39174 4.97346C3.42059 4.54028 3.89809 4.50239 4.228 4.4825C4.33422 4.46782 4.5071 4.50498 4.60507 4.47902C4.70249 4.45321 4.63868 4.29757 4.7533 4.27371L5.2075 4.27566C5.31181 4.30349 5.24951 4.4627 5.3543 4.48242C5.46043 4.50247 5.6223 4.46855 5.7347 4.4825C6.0283 4.49711 6.50192 4.53801 6.5616 4.91C6.58927 5.08204 6.53941 5.24425 6.35852 5.2841L5.17951 5.28621C5.14337 5.27947 5.15478 5.22445 5.14828 5.19646C5.13362 5.13283 5.08416 5.09064 5.02098 5.08333C4.92229 5.07189 4.79032 5.09259 4.8114 5.22494C4.82139 5.28734 4.94956 5.32597 5.00307 5.34512C5.39884 5.48713 5.83544 5.57364 6.22599 5.72425C6.35718 5.77489 6.48313 5.85263 6.53132 5.99594C6.58538 6.15678 6.58935 6.57778 6.53315 6.73691Z" fill="#00D52B"/>
<path d="M6.91544 1.20452C6.83816 1.52579 6.31238 2.06162 6.05001 2.258C5.53034 2.64695 4.40182 2.62917 3.89547 2.21864C3.64618 2.01642 3.13221 1.51386 3.09963 1.18317C3.07458 0.928853 3.22733 0.882111 3.38769 0.749675C3.54115 0.622758 3.67455 0.492757 3.81232 0.348555C3.95539 0.198673 4.04916 0.0321536 4.27801 0.00569979C4.69915 -0.0429898 5.01083 0.236245 5.42515 0.237137C5.571 0.237462 5.71598 0.190639 5.86143 0.197861C6.20434 0.21474 6.34528 0.477988 6.5784 0.681105C6.76848 0.846812 6.99114 0.889659 6.91544 1.20452Z" fill="#00D52B"/>
<path d="M4.75323 4.27344L5.20743 4.27539C5.31172 4.30319 5.24944 4.4624 5.35422 4.48218C5.46038 4.50221 5.62225 4.46831 5.73464 4.48223C6.0282 4.49681 6.50185 4.53779 6.56157 4.90971C6.58919 5.08173 6.53934 5.24398 6.35847 5.28385L5.17944 5.28595C5.14333 5.27922 5.1547 5.22419 5.14824 5.19617C5.13358 5.13255 5.08407 5.09036 5.02094 5.08304C4.92224 5.07161 4.79027 5.09235 4.81135 5.22465C4.8213 5.2871 4.94953 5.32572 5.00298 5.34489C5.3988 5.48686 5.83539 5.57334 6.22591 5.724C6.35712 5.77463 6.48308 5.85235 6.53125 5.99569C6.58528 6.1565 6.58931 6.57748 6.53309 6.73666C6.38469 7.15686 5.7068 7.07858 5.36358 7.08932C5.24385 7.12029 5.31408 7.2567 5.20949 7.29674C5.06833 7.28706 4.89666 7.31555 4.75916 7.29863C4.64477 7.28456 4.69755 7.1609 4.63258 7.11174C4.61054 7.09507 4.58851 7.08958 4.5615 7.08713C4.41825 7.07413 4.25574 7.09539 4.10943 7.08738C3.81028 7.07098 3.41915 6.98113 3.39209 6.61263C3.37724 6.41035 3.37674 6.16259 3.61993 6.12386L4.66216 6.12389C4.74942 6.14103 4.80428 6.20057 4.81655 6.29043C4.82422 6.34658 4.81066 6.3855 4.84706 6.43772C4.90545 6.52148 5.09153 6.51158 5.1403 6.41441C5.16382 6.36756 5.16634 6.26069 5.15773 6.20893C5.13847 6.0931 4.96522 6.06004 4.87244 6.03034C4.50498 5.91271 4.04749 5.8266 3.70372 5.66875C3.38018 5.5202 3.36888 5.31486 3.39167 4.97319C3.42056 4.54004 3.898 4.50211 4.22793 4.48223C4.33414 4.46756 4.50702 4.50469 4.605 4.47874C4.7024 4.45295 4.6386 4.29732 4.75323 4.27344Z" fill="black"/>
</g>
<defs>
<clipPath id="clip0_9220_83116">
<rect width="7.2" height="9" fill="white" transform="translate(1.3999)"/>
</clipPath>
</defs>
</svg>
