<svg width="10" height="10" viewBox="0 0 10 10" fill="none" xmlns="http://www.w3.org/2000/svg">
<g clip-path="url(#clip0_6964_49694)">
<g clip-path="url(#clip1_6964_49694)">
<path d="M2.07961 3.2418C2.07961 3.2418 1.77024 3.6332 1.87336 5.40273C1.87336 5.40273 1.19602 7.13711 1.42571 8.02305C1.65539 8.90664 2.55071 8.86211 2.55071 8.86211C2.55071 8.86211 3.98743 10.1254 5.08899 9.01211C6.19289 7.89648 4.17024 3.57695 4.17024 3.57695L3.91711 2.08398C3.91711 2.08398 3.64055 2.30195 3.67571 3.73867C3.71086 5.17539 3.11321 4.16289 3.11321 4.16289L2.07961 3.2418Z" fill="#3C2D0C"/>
<path d="M2.19467 4.80604L1.81499 5.87479L1.6767 6.62245C1.6767 6.62245 1.20561 8.28886 3.14858 8.26542C3.14858 8.26542 4.66499 9.62245 5.65405 8.71308L5.91889 8.42479L6.37827 7.71229L7.13764 5.44823C7.13764 5.44823 6.89624 3.89667 5.36811 3.25448C5.36811 3.25448 5.24155 3.18651 5.01186 3.27792C5.01186 3.27792 4.37905 1.85292 3.97827 2.02636C3.97827 2.02636 3.63374 2.20917 3.93139 3.61308L3.39233 3.85448C3.39233 3.85448 2.8017 2.73417 2.25561 2.95917C1.74702 3.16308 2.19467 4.80604 2.19467 4.80604Z" fill="#E78C19"/>
<path d="M4.15834 2.72689L4.20521 3.34799C4.20521 3.34799 4.24037 3.70424 4.61771 3.57767C4.72553 3.54252 4.81928 3.46752 4.8099 3.34564C4.80287 3.25424 4.73959 3.16986 4.6974 3.09252C4.62006 2.94486 4.55678 2.78783 4.46537 2.64486C4.4185 2.5722 4.3224 2.41049 4.21693 2.42924C4.21693 2.42924 4.13725 2.4058 4.15834 2.72689Z" fill="#EFB99D"/>
<path d="M2.49921 3.42046C2.50624 3.41577 2.66093 3.22124 2.98202 3.69467C3.30312 4.16811 3.2703 4.10717 3.2703 4.10717C3.2703 4.10717 3.44374 4.29702 3.08984 4.54077C3.01249 4.59702 2.92812 4.64389 2.83905 4.68139C2.7828 4.70249 2.72421 4.71421 2.66562 4.71421C2.59765 4.71186 2.56718 4.67671 2.55077 4.61343C2.49687 4.40718 2.43593 4.20092 2.40546 3.98999C2.38202 3.82592 2.33515 3.52592 2.49921 3.42046Z" fill="#EFB99D"/>
<path d="M6.23032 4.37656C6.23032 4.48906 6.06626 4.58047 5.86235 4.58047C5.65845 4.58047 5.49438 4.48906 5.49438 4.37656C5.49438 4.26406 5.66313 4.09766 5.8647 4.09766C6.06626 4.09766 6.23032 4.26406 6.23032 4.37656Z" fill="#FBFBFB"/>
<path d="M4.10829 5.25671C4.2173 5.06407 4.20522 4.85106 4.0813 4.78094C3.95738 4.71081 3.76856 4.81013 3.65954 5.00276C3.55053 5.1954 3.56261 5.40841 3.68653 5.47854C3.81045 5.54866 3.99928 5.44934 4.10829 5.25671Z" fill="#FBFBFB"/>
<path d="M4.62947 6.18566L5.63493 5.66301C5.63493 5.66301 6.8865 5.0091 7.19118 5.51301C7.49587 6.01691 7.19118 6.78801 7.19118 6.78801C7.19118 6.78801 7.05993 7.69035 6.13884 7.77004L5.64431 7.83801L5.0115 7.85441C5.0115 7.85441 3.99431 7.91301 3.24665 7.35988L3.00993 7.0716C3.00993 7.0716 2.53415 6.41769 2.86697 5.9466C3.19978 5.47551 4.33884 6.20441 4.33884 6.20441C4.33884 6.20441 4.49822 6.29113 4.62947 6.18566Z" fill="#FBFBFB"/>
<path d="M6.91011 3.58242C7.04343 3.58242 7.15151 3.47434 7.15151 3.34102C7.15151 3.20769 7.04343 3.09961 6.91011 3.09961C6.77678 3.09961 6.6687 3.20769 6.6687 3.34102C6.6687 3.47434 6.77678 3.58242 6.91011 3.58242Z" fill="#E72D36"/>
<path d="M6.37593 2.98867C6.50925 2.98867 6.61733 2.88059 6.61733 2.74727C6.61733 2.61394 6.50925 2.50586 6.37593 2.50586C6.2426 2.50586 6.13452 2.61394 6.13452 2.74727C6.13452 2.88059 6.2426 2.98867 6.37593 2.98867Z" fill="#E72D36"/>
<path d="M5.52046 2.79922C5.65378 2.79922 5.76187 2.69114 5.76187 2.55781C5.76187 2.42449 5.65378 2.31641 5.52046 2.31641C5.38713 2.31641 5.27905 2.42449 5.27905 2.55781C5.27905 2.69114 5.38713 2.79922 5.52046 2.79922Z" fill="#E72D36"/>
<path d="M5.71016 0.845703C5.76172 1.5582 5.65859 2.20273 5.48516 2.20273C5.31172 2.20273 5.08203 1.50664 5.08203 0.845703C5.08203 0.573828 5.225 0.529297 5.39844 0.529297C5.57422 0.529297 5.69141 0.573828 5.71016 0.845703Z" fill="#E72D36"/>
<path d="M7.30886 1.2892C7.04636 1.95248 6.67371 2.4892 6.51902 2.4142C6.36433 2.3392 6.45808 1.61263 6.74636 1.01732C6.86589 0.771229 7.01355 0.794666 7.16824 0.869666C7.32293 0.94701 7.40964 1.03607 7.30886 1.2892Z" fill="#E72D36"/>
<path d="M8.45237 2.58421C7.87347 3.00375 7.27347 3.25687 7.18206 3.10921C7.09066 2.96156 7.56175 2.4014 8.12191 2.05218C8.35394 1.90921 8.46644 2.00765 8.55784 2.15296C8.64691 2.30062 8.67269 2.4225 8.45237 2.58421Z" fill="#E72D36"/>
<path d="M4.58283 5.48835C4.56174 5.49069 4.54064 5.49303 4.51955 5.49538C4.52189 5.50241 4.52424 5.50944 4.52424 5.51882C4.52424 5.59147 4.40939 5.65241 4.26642 5.6571C4.26642 5.66413 4.26408 5.66881 4.26642 5.67585C4.27345 5.76491 4.42814 5.82585 4.60861 5.81178C4.79142 5.79772 4.93439 5.71335 4.92736 5.62428C4.91799 5.53522 4.76564 5.47428 4.58283 5.48835Z" fill="black"/>
<path d="M5.85285 5.17585C5.83175 5.17819 5.81066 5.18053 5.78957 5.18288C5.79191 5.18991 5.79425 5.19694 5.79425 5.20632C5.79425 5.27897 5.67941 5.33991 5.53644 5.3446C5.53644 5.35163 5.5341 5.35631 5.53644 5.36335C5.54347 5.45241 5.69816 5.51335 5.87863 5.49928C6.06144 5.48522 6.20441 5.40085 6.19738 5.31178C6.19035 5.22272 6.03566 5.16178 5.85285 5.17585Z" fill="black"/>
<path d="M6.27018 5.54596C6.27018 5.54596 5.76627 5.69361 5.79674 5.97721C5.82721 6.2608 6.43424 6.40846 6.43424 6.40846C6.43424 6.40846 6.5983 6.47408 6.69205 6.31705C6.7858 6.16236 6.92408 5.95143 6.88658 5.64908C6.88658 5.64908 6.87486 5.42408 6.27018 5.54596Z" fill="black"/>
</g>
</g>
<defs>
<clipPath id="clip0_6964_49694">
<rect width="10" height="10" fill="white"/>
</clipPath>
<clipPath id="clip1_6964_49694">
<rect width="12" height="12" fill="white" transform="translate(-1 -1)"/>
</clipPath>
</defs>
</svg>
