<svg width="12" height="12" viewBox="0 0 12 12" fill="none" xmlns="http://www.w3.org/2000/svg">
<g clip-path="url(#clip0_386_95864)">
<path d="M5.6149 3.63297C5.98202 3.96106 6.32831 4.272 6.67802 4.57925C6.70572 4.60352 6.7582 4.61275 6.79697 4.60853C7.36875 4.54576 7.94106 4.48431 8.51178 4.41205C8.79873 4.37565 9.0113 4.46506 9.17903 4.70532C9.48576 5.1447 9.80752 5.57354 10.1206 6.0087C10.2551 6.19569 10.2828 6.39824 10.1641 6.60211C10.042 6.81205 9.85552 6.92413 9.6084 6.91253C9.42299 6.90383 9.28954 6.80044 9.18484 6.65459C8.95433 6.33336 8.71934 6.01503 8.49728 5.68827C8.42106 5.57591 8.348 5.54136 8.20901 5.55956C7.64752 5.63367 7.08365 5.69011 6.49947 5.75552C6.53244 5.7906 6.55222 5.81539 6.57543 5.83569C6.93569 6.15139 7.29385 6.46945 7.65833 6.7804C7.83583 6.93205 7.91046 7.11007 7.9007 7.34664C7.87539 7.96114 7.86563 8.57644 7.85429 9.19174C7.84822 9.51719 7.60057 9.76088 7.26827 9.7564C6.94545 9.75218 6.71178 9.51376 6.72391 9.1891C6.74317 8.67983 6.77218 8.17081 6.79011 7.66128C6.79222 7.60062 6.7706 7.51754 6.7284 7.47983C5.80216 6.64958 4.87169 5.82435 3.94176 4.99859C3.91908 4.97829 3.89402 4.96088 3.86238 4.93609C3.66405 5.23042 3.46572 5.51947 3.27556 5.8138C3.25499 5.84572 3.2658 5.9135 3.28506 5.95358C3.46334 6.3207 3.6469 6.68519 3.82835 7.05099C3.96629 7.32897 3.86765 7.60325 3.59178 7.71218C3.3051 7.82532 3.04664 7.69161 2.93613 7.41099C2.79635 7.05653 2.62809 6.71341 2.47117 6.3658C2.41341 6.23789 2.3575 6.10866 2.29235 5.98444C2.21508 5.83701 2.22668 5.69407 2.30765 5.55772C2.6418 4.99517 2.97886 4.43446 3.3175 3.87455C3.34862 3.82312 3.39767 3.78277 3.44013 3.73873C3.45517 3.72317 3.47627 3.71341 3.49209 3.69838C4.16778 3.04774 5.03152 2.77714 5.89736 2.51262C6.02976 2.47227 6.12655 2.40343 6.20989 2.29319C6.42747 2.00598 6.65165 1.72378 6.88031 1.44528C7.02273 1.27174 7.21341 1.23191 7.41411 1.31552C7.61983 1.40097 7.7546 1.59481 7.72347 1.80053C7.70844 1.89969 7.66255 2.00466 7.60136 2.08484C7.32681 2.44457 7.0462 2.79983 6.75688 3.14796C6.69068 3.22761 6.58941 3.29117 6.4913 3.32888C6.20989 3.43701 5.92189 3.52774 5.61464 3.63297H5.6149Z" fill="#777A8C"/>
<path d="M5.99919 11.0574C4.55365 11.0574 3.10812 11.0574 1.66258 11.0574C1.60983 11.0574 1.55708 11.0585 1.50434 11.0553C1.24165 11.0392 1.03304 10.8451 1.02935 10.6146C1.02565 10.3844 1.22741 10.1847 1.49062 10.1597C1.53414 10.1554 1.57845 10.157 1.62223 10.157C4.54416 10.157 7.46609 10.157 10.388 10.1578C10.4619 10.1578 10.5384 10.1612 10.6096 10.1792C10.8514 10.2398 10.9938 10.4223 10.9785 10.6405C10.9643 10.8456 10.7789 11.0242 10.5465 11.0521C10.4859 11.0595 10.4236 11.0574 10.3622 11.0574C8.90794 11.0574 7.45343 11.0574 5.99919 11.0574Z" fill="#777A8C"/>
<path d="M2.90148 0.922858C3.53181 0.920748 4.03581 1.41895 4.03819 2.04637C4.04056 2.67459 3.54157 3.18018 2.91441 3.18598C2.29515 3.19152 1.77928 2.68198 1.77348 2.05903C1.76794 1.43794 2.27695 0.924968 2.90148 0.922858Z" fill="#777A8C"/>
</g>
<defs>
<clipPath id="clip0_386_95864">
<rect width="9.95024" height="10.1349" fill="white" transform="translate(1.0293 0.922852)"/>
</clipPath>
</defs>
</svg>
