<svg width="20" height="20" viewBox="0 0 20 20" fill="none" xmlns="http://www.w3.org/2000/svg">
<g clip-path="url(#clip0_1395_102859)">
<rect x="3" y="3" width="14" height="14" rx="7" fill="white"/>
<path fill-rule="evenodd" clip-rule="evenodd" d="M9.99935 18.3334C14.6193 18.3334 18.3327 14.6201 18.3327 10.0001C18.3327 5.38008 14.6193 1.66675 9.99935 1.66675C5.37935 1.66675 1.66602 5.38008 1.66602 10.0001C1.66602 14.6201 5.37935 18.3334 9.99935 18.3334ZM12.291 11.3167C12.291 10.1034 11.5618 9.68675 10.1035 9.51508C9.06185 9.37508 8.85352 9.09841 8.85352 8.60925C8.85352 8.12425 9.20352 7.81258 9.89518 7.81258C10.5202 7.81258 10.8702 8.02091 11.041 8.54091C11.0599 8.5909 11.0933 8.63407 11.137 8.66483C11.1807 8.69559 11.2326 8.71251 11.286 8.71341H11.8385C11.8705 8.71443 11.9024 8.70895 11.9322 8.6973C11.962 8.68566 11.9891 8.66808 12.0119 8.64565C12.0348 8.62322 12.0528 8.59639 12.065 8.56678C12.0771 8.53718 12.0831 8.50541 12.0827 8.47341V8.43675C11.9427 7.67175 11.3177 6.94258 10.5202 6.87425V6.10925C10.5202 5.96841 10.416 5.86425 10.2452 5.83258H9.78685C9.64518 5.83258 9.51518 5.93675 9.47852 6.10925V6.87425C8.43685 7.01591 7.74518 7.81258 7.74518 8.68258C7.74518 9.82758 8.43685 10.2759 9.89518 10.4526C10.8702 10.6242 11.1818 10.8334 11.1818 11.3901C11.1818 11.9426 10.6927 12.3276 10.036 12.3276C9.13018 12.3276 8.81768 11.9426 8.71352 11.4217C8.68185 11.2859 8.57768 11.2134 8.47352 11.2134H7.88018C7.84818 11.2129 7.81642 11.219 7.78682 11.2311C7.75721 11.2433 7.73038 11.2613 7.70795 11.2842C7.68551 11.307 7.66794 11.3341 7.65629 11.3639C7.64465 11.3937 7.63916 11.4256 7.64018 11.4576V11.4942C7.77602 12.3592 8.33268 12.9526 9.47935 13.1251V13.8951C9.47935 14.0367 9.58352 14.1301 9.75435 14.1659H10.2543C10.3902 14.1659 10.4843 14.0726 10.521 13.8951V13.1242C11.5627 12.9526 12.291 12.2551 12.291 11.3176M6.49268 13.9126C6.99607 14.3745 7.58607 14.7319 8.22852 14.9642C8.33268 15.0367 8.43685 15.1726 8.43685 15.2767V15.7659C8.43685 15.8334 8.43685 15.8701 8.40102 15.9017C8.36935 16.0417 8.22852 16.1101 8.08852 16.0417C6.82484 15.6394 5.7219 14.8455 4.93922 13.7749C4.15654 12.7043 3.7347 11.4125 3.7347 10.0863C3.7347 8.76015 4.15654 7.46834 4.93922 6.39774C5.7219 5.32715 6.82484 4.53326 8.08852 4.13091C8.12435 4.09925 8.19268 4.09925 8.22852 4.09925C8.37018 4.13091 8.43685 4.23508 8.43685 4.37508V4.86008C8.43685 5.03675 8.37018 5.14091 8.22852 5.20841C7.51852 5.46502 6.87374 5.87483 6.33999 6.40873C5.80623 6.94263 5.3966 7.58752 5.14018 8.29758C4.78199 9.26194 4.71934 10.3112 4.96025 11.3113C5.20115 12.3114 5.73467 13.2171 6.49268 13.9126ZM11.5985 4.27091C11.6302 4.13091 11.7702 4.06258 11.911 4.13091C12.8657 4.441 13.7324 4.97471 14.4391 5.6876C15.1457 6.40048 15.6718 7.27189 15.9735 8.22925C17.0152 11.5267 15.2077 15.0367 11.911 16.0784C11.8743 16.1101 11.8068 16.1101 11.7702 16.1101C11.6302 16.0784 11.5618 15.9742 11.5618 15.8334V15.3501C11.5618 15.1726 11.6302 15.0684 11.7702 15.0001C13.1927 14.4792 14.3385 13.3701 14.8593 11.9117C15.0975 11.2714 15.2065 10.5903 15.1799 9.9076C15.1533 9.22494 14.9918 8.5543 14.7045 7.93444C14.4173 7.31457 14.0101 6.75775 13.5064 6.29616C13.0028 5.83456 12.4127 5.47732 11.7702 5.24508C11.666 5.17258 11.5618 5.03675 11.5618 4.89591V4.41258C11.5618 4.33925 11.5618 4.30758 11.5985 4.27091Z" fill="#2775CA"/>
</g>
<defs>
<clipPath id="clip0_1395_102859">
<rect width="20" height="20" rx="10" fill="white"/>
</clipPath>
</defs>
</svg>
