<svg width="10" height="10" viewBox="0 0 10 10" fill="none" xmlns="http://www.w3.org/2000/svg">
<g clip-path="url(#clip0_6698_673107)">
<mask id="mask0_6698_673107" style="mask-type:luminance" maskUnits="userSpaceOnUse" x="0" y="0" width="10" height="10">
<path d="M9.83373 0.179688H0V9.81918H9.83373V0.179688Z" fill="white"/>
</mask>
<g mask="url(#mask0_6698_673107)">
<mask id="mask1_6698_673107" style="mask-type:alpha" maskUnits="userSpaceOnUse" x="-2" y="1" width="11" height="11">
<path fill-rule="evenodd" clip-rule="evenodd" d="M6.97308 6.8818C7.8721 6.35577 8.47384 5.39532 8.47384 4.29768C8.47384 2.63499 7.09308 1.28711 5.38983 1.28711C4.18681 1.28711 3.14466 1.95954 2.6363 2.94039L-1.70093 7.17437L2.48622 11.2618L6.97308 6.8818Z" fill="#795E5E"/>
</mask>
<g mask="url(#mask1_6698_673107)">
<path fill-rule="evenodd" clip-rule="evenodd" d="M5.3193 1.06799L5.32088 1.06641C4.83474 1.0753 4.36515 1.20316 3.96132 1.45321C3.65845 1.76756 3.36208 2.08825 3.07525 2.4177C2.76298 2.7756 2.46176 3.14324 2.17524 3.5231C2.06864 3.66577 1.96361 3.81051 1.86446 3.96098C2.01861 3.8642 2.16689 3.76167 2.31304 3.6576C2.48547 3.53332 2.65569 3.40636 2.82345 3.27698C3.6434 2.64546 4.41166 1.95399 5.14962 1.23663C5.2063 1.1807 5.26266 1.12448 5.3193 1.06799ZM4.9552 2.9477C5.5022 2.4077 6.04413 1.86119 6.57071 1.30128C6.35086 1.21371 6.12515 1.15051 5.89918 1.11233C5.41181 1.55553 4.93376 2.00833 4.46086 2.46513C3.91676 3.0011 3.37803 3.54389 2.85464 4.10005C2.09568 4.90551 1.36744 5.73886 0.697895 6.62108C1.51431 6.03039 2.29037 5.39346 3.04062 4.72922C3.69452 4.15122 4.32942 3.55315 4.9552 2.9477ZM7.50959 1.8588C6.73762 2.69322 5.93708 3.50184 5.12686 4.30001C4.64084 4.77084 4.15108 5.23808 3.65418 5.69782C2.56884 6.70241 1.44973 7.67244 0.261963 8.56651C1.19878 7.38055 2.21709 6.26465 3.27142 5.18234C3.71986 4.72224 4.17449 4.26817 4.63252 3.81744C5.42988 3.04629 6.23764 2.28371 7.06969 1.54748C7.22179 1.63848 7.36898 1.74211 7.50959 1.8588ZM8.23793 2.67572C8.14364 2.52829 8.03613 2.38593 7.91581 2.25003C7.06049 3.00415 6.23135 3.78641 5.41318 4.57786C4.93057 5.0526 4.45142 5.5312 3.97993 6.01679C2.9511 7.07603 1.95826 8.16829 1.04262 9.32693C2.2553 8.41396 3.39684 7.42205 4.50367 6.39467C4.97686 5.95505 5.44388 5.50941 5.90752 5.06044C6.69937 4.2802 7.48218 3.4901 8.23793 2.67572ZM8.49218 3.15972C8.58371 3.37139 8.65057 3.58903 8.69237 3.80698C8.23359 4.28863 7.76376 4.76053 7.29047 5.22801C6.73603 5.76441 6.17427 6.29529 5.59857 6.81146C4.77886 7.5471 3.93054 8.25215 3.03315 8.90139C3.6353 8.10786 4.28484 7.35377 4.9623 6.62427C5.55676 5.98244 6.17266 5.35948 6.79613 4.74544C7.35225 4.20858 7.91508 3.67665 8.49218 3.15972ZM8.41037 5.6361C8.63296 5.25234 8.74379 4.81539 8.7453 4.36453C8.67876 4.42767 8.61252 4.49113 8.54686 4.55463C7.80362 5.28317 7.08781 6.04167 6.43496 6.8521C6.30991 7.00736 6.18727 7.16446 6.06684 7.32367C5.95996 7.4666 5.8552 7.61108 5.75606 7.76155C5.9102 7.66477 6.05847 7.56224 6.20462 7.45817C6.56213 7.20086 6.90962 6.93165 7.24835 6.65284C7.64659 6.32563 8.03296 5.98524 8.41037 5.6361Z" fill="#FF4662"/>
</g>
</g>
</g>
<defs>
<clipPath id="clip0_6698_673107">
<rect width="10" height="10" fill="white"/>
</clipPath>
</defs>
</svg>
